<?xml version="1.0" standalone="no"?>
<!DOCTYPE svg PUBLIC "-//W3C//DTD SVG 20010904//EN"
 "http://www.w3.org/TR/2001/REC-SVG-20010904/DTD/svg10.dtd">
<svg version="1.0" xmlns="http://www.w3.org/2000/svg"
 width="100.000000pt" height="100.000000pt" viewBox="0 0 100.000000 100.000000"
 preserveAspectRatio="xMidYMid meet">

<g transform="translate(0.000000,100.000000) scale(0.100000,-0.100000)"
fill="#000000" stroke="none">
<path d="M751 855 c-1 -29 -20 -45 -53 -45 -37 0 -146 -42 -235 -90 -40 -22
-73 -37 -73 -35 0 10 88 60 160 92 84 36 84 41 2 17 -248 -72 -429 -271 -398
-438 22 -117 211 -174 376 -114 219 80 375 297 319 445 -5 15 -25 43 -42 61
-30 31 -31 34 -13 44 17 10 17 11 -5 22 -13 6 -26 22 -30 36 -6 21 -7 22 -8 5z
m15 -67 c-9 -15 -12 -16 -25 -3 -12 11 -12 17 -2 29 19 22 43 -1 27 -26z m-76
-41 c0 -2 -17 -19 -37 -38 l-38 -34 34 38 c33 34 41 42 41 34z m-87 -104 c-4
-10 -9 -11 -19 -2 -10 8 -11 14 -1 24 14 15 28 0 20 -22z m-161 -35 c-17 -17
-46 8 -29 27 10 11 14 11 27 -1 11 -10 11 -17 2 -26z m182 -4 c3 -8 2 -12 -4
-9 -6 3 -10 10 -10 16 0 14 7 11 14 -7z m-128 -46 l29 -33 -32 29 c-31 28 -38
36 -30 36 2 0 16 -15 33 -32z m195 -71 c-13 -13 -31 0 -24 19 4 11 8 12 20 3
9 -8 10 -16 4 -22z m-81 -35 c0 -13 -12 -22 -22 -16 -10 6 -1 24 13 24 5 0 9
-4 9 -8z m-30 -36 c0 -2 -8 -10 -17 -17 -16 -13 -17 -12 -4 4 13 16 21 21 21
13z m-323 -98 c-2 -37 1 -42 23 -49 l25 -7 -27 -1 c-27 -1 -58 21 -58 42 0 12
28 57 35 57 2 0 3 -19 2 -42z m257 10 c19 -18 -3 -39 -25 -25 -13 8 -14 13 -5
23 14 17 14 17 30 2z"/>
<path d="M715 314 c-28 -22 -111 -64 -170 -85 -41 -16 -44 -18 -15 -13 45 7
171 67 195 94 21 24 18 25 -10 4z"/>
<path d="M230 173 c-33 -13 -41 -61 -14 -87 18 -18 66 -21 95 -6 20 11 28 73
10 84 -15 9 -75 15 -91 9z m80 -48 c0 -22 -4 -25 -40 -25 -36 0 -40 3 -40 25
0 23 4 25 40 25 36 0 40 -2 40 -25z"/>
<path d="M364 171 c-9 -9 -4 -101 6 -101 6 0 10 18 10 40 0 39 1 40 36 40 24
0 34 -4 31 -12 -2 -7 -11 -12 -21 -10 -23 4 -20 -11 7 -36 29 -27 40 -28 32
-3 -3 11 -1 22 5 26 15 9 12 45 -3 51 -18 7 -97 11 -103 5z"/>
<path d="M517 173 c-11 -10 -8 -103 3 -103 6 0 10 25 10 55 0 56 -1 60 -13 48z"/>
<path d="M577 169 c-20 -12 -23 -69 -5 -87 15 -15 72 -16 99 -2 22 12 27 78 7
84 -35 11 -86 13 -101 5z m91 -46 c3 -21 -1 -23 -42 -23 -43 0 -46 2 -46 26 0
23 3 25 43 22 35 -2 43 -7 45 -25z"/>
<path d="M720 125 c0 -30 5 -55 10 -55 6 0 10 17 10 37 l0 37 39 -38 c22 -21
44 -35 50 -32 6 4 11 27 11 52 0 32 -4 44 -15 44 -10 0 -15 -10 -15 -31 l0
-31 -40 36 c-22 20 -42 36 -45 36 -3 0 -5 -25 -5 -55z"/>
</g>
</svg>
